<?xml version="1.0" encoding="UTF-8" standalone="no"?>
<svg
   id="Layer_1"
   data-name="Layer 1"
   viewBox="0 0 48 48"
   version="1.1"
   sodipodi:docname="feed.svg"
   inkscape:version="1.2.1 (9c6d41e4, 2022-07-14)"
   xmlns:inkscape="http://www.inkscape.org/namespaces/inkscape"
   xmlns:sodipodi="http://sodipodi.sourceforge.net/DTD/sodipodi-0.dtd"
   xmlns="http://www.w3.org/2000/svg"
   xmlns:svg="http://www.w3.org/2000/svg"
   xmlns:rdf="http://www.w3.org/1999/02/22-rdf-syntax-ns#"
   xmlns:cc="http://creativecommons.org/ns#"
   xmlns:dc="http://purl.org/dc/elements/1.1/">
  <sodipodi:namedview
     id="namedview83"
     pagecolor="#ffffff"
     bordercolor="#666666"
     borderopacity="1.0"
     inkscape:showpageshadow="2"
     inkscape:pageopacity="0.0"
     inkscape:pagecheckerboard="0"
     inkscape:deskcolor="#d1d1d1"
     showgrid="false"
     inkscape:zoom="4.9166667"
     inkscape:cx="24.101695"
     inkscape:cy="24"
     inkscape:window-width="1309"
     inkscape:window-height="456"
     inkscape:window-x="0"
     inkscape:window-y="617"
     inkscape:window-maximized="0"
     inkscape:current-layer="Layer_1" />
  <defs
     id="defs54">
    <style
       id="style52">.cls-1{fill:none;stroke:#000;stroke-linecap:round;stroke-linejoin:round;stroke-width:2px;}</style>
  </defs>
  <title
     id="title56">wheat_1</title>
  <path
     class="cls-1"
     d="M36.75,10.75a2.23,2.23,0,0,0-.76.14s0-.09,0-.14a2.24,2.24,0,0,0-3.09-2.09,2.23,2.23,0,0,0-3.52-1.2A3,3,0,0,0,27,6.25h-.1a3,3,0,0,0-5.79,0H21a3,3,0,0,0-2.4,1.21,2.23,2.23,0,0,0-3.52,1.2A2.24,2.24,0,0,0,12,10.75s0,.09,0,.14a2.25,2.25,0,1,0,.88,3.63,2.24,2.24,0,0,0,4,.47,2.24,2.24,0,0,0,4-.47,2.22,2.22,0,0,0,3.15.14,2.22,2.22,0,0,0,3.15-.14,2.24,2.24,0,0,0,4,.47,2.24,2.24,0,0,0,4-.47,2.25,2.25,0,1,0,1.65-3.77Z"
     id="path58" />
  <path
     class="cls-1"
     d="M39,14s.86,20.59.19,26"
     id="path60" />
  <path
     class="cls-1"
     d="M9.53,40.66C8.17,34.52,9,13,9,13"
     id="path62" />
  <path
     class="cls-1"
     d="M9.53,40.66A1.9,1.9,0,0,0,9,42a2,2,0,0,0,4,.24"
     id="path64" />
  <path
     class="cls-1"
     d="M39.19,40A2,2,0,1,1,37,42.3"
     id="path66" />
  <path
     class="cls-1"
     d="M13,42.24A67.61,67.61,0,0,0,26,44a43,43,0,0,0,11-1.7"
     id="path68" />
  <line
     class="cls-1"
     x1="24"
     y1="33"
     x2="24"
     y2="38"
     id="line70" />
  <line
     class="cls-1"
     x1="24"
     y1="32"
     x2="25"
     y2="31"
     id="line72" />
  <line
     class="cls-1"
     x1="24"
     y1="29"
     x2="25"
     y2="28"
     id="line74" />
  <line
     class="cls-1"
     x1="23"
     y1="30"
     x2="24"
     y2="31"
     id="line76" />
  <line
     class="cls-1"
     x1="23"
     y1="27"
     x2="24"
     y2="28"
     id="line78" />
  <rect
     class="cls-1"
     x="-559"
     y="-491"
     width="690"
     height="690"
     id="rect80" />
  <metadata
     id="metadata8577">
    <rdf:RDF>
      <cc:Work
         rdf:about="">
        <dc:title>wheat_1</dc:title>
      </cc:Work>
    </rdf:RDF>
  </metadata>
</svg>
