<?xml version="1.0" encoding="UTF-8" standalone="no"?>
<svg
   viewBox="0 0 32 32"
   version="1.1"
   id="svg11"
   sodipodi:docname="animal.svg"
   inkscape:version="1.2.1 (9c6d41e4, 2022-07-14)"
   xmlns:inkscape="http://www.inkscape.org/namespaces/inkscape"
   xmlns:sodipodi="http://sodipodi.sourceforge.net/DTD/sodipodi-0.dtd"
   xmlns="http://www.w3.org/2000/svg"
   xmlns:svg="http://www.w3.org/2000/svg">
  <sodipodi:namedview
     id="namedview13"
     pagecolor="#ffffff"
     bordercolor="#666666"
     borderopacity="1.0"
     inkscape:showpageshadow="2"
     inkscape:pageopacity="0.0"
     inkscape:pagecheckerboard="0"
     inkscape:deskcolor="#d1d1d1"
     showgrid="false"
     inkscape:zoom="7.375"
     inkscape:cx="16.067797"
     inkscape:cy="16"
     inkscape:window-width="1309"
     inkscape:window-height="456"
     inkscape:window-x="0"
     inkscape:window-y="25"
     inkscape:window-maximized="0"
     inkscape:current-layer="svg11" />
  <defs
     id="defs4">
    <style
       id="style2">.cls-1{fill:#231f20;}</style>
  </defs>
  <g
     id="pig">
    <path
       class="cls-1"
       d="M29,12H27.15a.42.42,0,0,1-.4-.33,4.82,4.82,0,0,0-3.4-3.51l.72-2.92a1,1,0,0,0-.27-1A1,1,0,0,0,22.85,4l-1.43.37a5.66,5.66,0,0,0-4,3.6H10.34a6.9,6.9,0,0,0-6.06,3.62l.11-.31a1,1,0,0,0-.64-1.26,1,1,0,0,0-1.27.64l-.36,1.1A2.48,2.48,0,0,0,2.47,14a2.37,2.37,0,0,0,1.95,1l.1,0a1,1,0,0,0,1-.81A4.94,4.94,0,0,1,10.34,10h7.84a1,1,0,0,0,.95-.69l.17-.52a3.75,3.75,0,0,1,2.43-2.41l-.58,2.38a1,1,0,0,0,.18.86,1,1,0,0,0,.79.38,2.78,2.78,0,0,1,2.69,2.15A2.41,2.41,0,0,0,27.15,14H28v2h-.84a2.29,2.29,0,0,0-2.24,1.78,5.7,5.7,0,0,1-.7,1.69,5.84,5.84,0,0,1-.92,1.12,3.77,3.77,0,0,0-1.2,2.76V26H20.17V22a1,1,0,0,0-2,0H15.92a2.86,2.86,0,0,0,.29-.79,3.35,3.35,0,0,0,0-1.41,1,1,0,0,0-2,.4,1.31,1.31,0,0,1,0,.59c-.19.86-1.28,1.25-1.33,1.27h0l-.1.05-.2.14-.09.09a1.37,1.37,0,0,0-.13.2.31.31,0,0,0-.05.1,1,1,0,0,0-.07.35v3H10.33V23.77a4.14,4.14,0,0,0-2-3.53l-.56-.35a5,5,0,0,1-2-2.28A1,1,0,1,0,4,18.39,7,7,0,0,0,5.89,21l-.41.83a4.55,4.55,0,0,0-.48,2V27a1,1,0,0,0,1,1H9a1,1,0,0,0,.17,0l.16,0h3.94a1,1,0,0,0,1-1V24H15v3a1,1,0,0,0,1,1h7.1a1,1,0,0,0,1-1V23.35a1.75,1.75,0,0,1,.56-1.3,7.61,7.61,0,0,0,1.25-1.52,7.39,7.39,0,0,0,1-2.3.29.29,0,0,1,.29-.23H29a1,1,0,0,0,1-1V13A1,1,0,0,0,29,12ZM7,23.83a2.47,2.47,0,0,1,.27-1.13l.28-.57a2.15,2.15,0,0,1,.78,1.64V26H7ZM17,24h1.17v2H17Z"
       id="path6" />
    <path
       class="cls-1"
       d="M23.14,13a1,1,0,0,0-1-1h0a1,1,0,1,0,1,1Z"
       id="path8" />
  </g>
</svg>
