<?xml version="1.0" encoding="UTF-8" standalone="no"?>
<svg
   viewBox="0 0 48 48"
   version="1.1"
   id="svg210"
   sodipodi:docname="food.svg"
   inkscape:version="1.2.1 (9c6d41e4, 2022-07-14)"
   xmlns:inkscape="http://www.inkscape.org/namespaces/inkscape"
   xmlns:sodipodi="http://sodipodi.sourceforge.net/DTD/sodipodi-0.dtd"
   xmlns="http://www.w3.org/2000/svg"
   xmlns:svg="http://www.w3.org/2000/svg"
   xmlns:rdf="http://www.w3.org/1999/02/22-rdf-syntax-ns#"
   xmlns:cc="http://creativecommons.org/ns#"
   xmlns:dc="http://purl.org/dc/elements/1.1/">
  <defs
     id="defs214" />
  <sodipodi:namedview
     id="namedview212"
     pagecolor="#ffffff"
     bordercolor="#666666"
     borderopacity="1.0"
     inkscape:showpageshadow="2"
     inkscape:pageopacity="0.0"
     inkscape:pagecheckerboard="0"
     inkscape:deskcolor="#d1d1d1"
     showgrid="false"
     inkscape:zoom="4.9166667"
     inkscape:cx="-8.3389831"
     inkscape:cy="24"
     inkscape:window-width="1309"
     inkscape:window-height="456"
     inkscape:window-x="82"
     inkscape:window-y="479"
     inkscape:window-maximized="0"
     inkscape:current-layer="_3-Food_equipment" />
  <title
     id="title189">3-Food equipment</title>
  <g
     id="_3-Food_equipment"
     data-name="3-Food equipment">
    <path
       d="M24,48A24,24,0,1,1,48,24,24.028,24.028,0,0,1,24,48ZM24,2A22,22,0,1,0,46,24,22.025,22.025,0,0,0,24,2Z"
       id="path191" />
    <path
       d="M12.412,37.765a17.975,17.975,0,0,1-2.126-25.412l1.524,1.294A15.976,15.976,0,0,0,13.7,36.235Z"
       id="path193" />
    <path
       d="M35.645,37.765l-1.29-1.53a15.975,15.975,0,0,0,1.892-22.588l1.524-1.294a17.975,17.975,0,0,1-2.126,25.412Z"
       id="path195" />
    <path
       d="M18,19a5.006,5.006,0,0,1-5-5V7h2v7a3,3,0,0,0,6,0V7h2v7A5.006,5.006,0,0,1,18,19Z"
       id="path197" />
    <rect
       x="17"
       y="5"
       width="2"
       height="21"
       id="rect199" />
    <path
       d="M18,43a3,3,0,0,1-3-3V28a3,3,0,0,1,6,0V40A3,3,0,0,1,18,43Zm0-16a1,1,0,0,0-1,1V40a1,1,0,0,0,2,0V28A1,1,0,0,0,18,27Z"
       id="path201" />
    <rect
       x="29"
       y="18"
       width="2"
       height="8"
       id="rect203" />
    <path
       d="M30,43a3,3,0,0,1-3-3V28a3,3,0,0,1,6,0V40A3,3,0,0,1,30,43Zm0-16a1,1,0,0,0-1,1V40a1,1,0,0,0,2,0V28A1,1,0,0,0,30,27Z"
       id="path205" />
    <path
       d="M30,19c-2.8,0-5-3.075-5-7s2.2-7,5-7,5,3.075,5,7S32.8,19,30,19ZM30,7c-1.626,0-3,2.29-3,5s1.374,5,3,5,3-2.29,3-5S31.626,7,30,7Z"
       id="path207" />
  </g>
  <metadata
     id="metadata8181">
    <rdf:RDF>
      <cc:Work
         rdf:about="">
        <dc:title>3-Food equipment</dc:title>
      </cc:Work>
    </rdf:RDF>
  </metadata>
</svg>
